<svg xmlns="http://www.w3.org/2000/svg" viewBox="0 0 24 24" fill="none"><path d="M24 18.588a1.529 1.529 0 01-1.895-.72l-3.45-4.771-.5-.667-4.003 5.444a1.466 1.466 0 01-1.802.708l5.158-6.92-4.798-6.251a1.595 1.595 0 011.9.666l3.576 4.83 3.596-4.81a1.435 1.435 0 011.788-.668L21.708 7.9l-2.522 3.283a.666.666 0 000 .994l4.804 6.412zM.002 11.576l.42-2.075c1.154-4.103 5.858-5.81 9.094-3.27 1.895 1.489 2.368 3.597 2.275 5.973H1.116C.943 16.447 4.005 19.009 7.92 17.7a4.078 4.078 0 002.582-2.876c.207-.666.548-.78 1.174-.588a5.417 5.417 0 01-2.589 3.957 6.272 6.272 0 01-7.306-.933c-1.489-1.489-1.955-3.325-1.79-5.416l.002-.268zm1.121-.709h10.665c-.206-3.76-3.084-5.473-5.61-5.35-3.143.156-5.03 2.2-5.055 5.35z" fill="#000"/></svg>
