<svg xmlns="http://www.w3.org/2000/svg" viewBox="0 0 24 24" fill="none"><path d="M12 1.85c.27.27.54.54.68.95.41.95.41 1.76.41 2.7 0 1.35-.54 2.57-1.49 3.38-.54.54-.54.54-.27.95.41.27.68.81 1.08 1.22.14.14.41.41.54.54.95.95 1.35 1.22 1.76 1.22h.14c.54-.14.95-.68 1.35-1.76.14-.41.27-.54.41-.54.27 0 .27.14.41.68v.27c0 .95-.14 1.35-.68 1.89-.41.41-.81.54-1.35.54-.81 0-1.35-.27-2.3-1.22-.68-.68-.95-.95-1.22-.95-.41 0-.81.27-1.35.81-.54.68-.81.81-1.08.95-.14 0-.27.14-.27.14-.14.14-.27.14-.41.14h-.27c-1.22-.27-2.03-1.08-2.7-2.57-.54-1.22-.81-2.43-.81-4.05 0-1.62.27-2.97.95-4.32.95-2.03 2.57-3.38 4.32-3.65.14 0 .14-.14.27-.14.14 0 .14 0 .27.14zm.95 15.27v-.14c0-.27 0-.27-.14-.27s-.14.14-.14.41v.27c0 .54-.14 1.22-.27 1.62-.27.95-.68 1.89-1.22 2.7-.14.14-.14.27 0 .27.14.14.14.14.27 0 .68-.68 1.08-1.49 1.35-2.43.14-.81.27-1.62.27-2.43h-.14z" fill="#13AA52"/></svg>
