<svg xmlns="http://www.w3.org/2000/svg" viewBox="0 0 24 24" fill="none"><path d="M11.572 0c-.176 0-.31.001-.358.007a19.76 19.76 0 0 0-.364.033C7.443.346 4.25 2.185 2.228 5.012a11.875 11.875 0 0 0-2.119 5.243c-.096.659-.108.854-.108 1.747s.012 1.089.108 1.748c.652 4.506 3.86 8.292 8.209 9.695.779.25 1.6.422 2.534.525.363.04 1.935.04 2.299 0 1.611-.178 2.977-.577 4.323-1.264.207-.106.247-.134.219-.158-.02-.013-.9-.78-1.955-1.704l-1.919-1.681-2.404-2.255-2.405-2.254c-.01-.008-.022-.015-.035-.022h-.002c-.014-.01-.025-.02-.033-.034v-.001l.002-.003a.016.016 0 0 1 .008-.017l.001-.001 2.468-1.448c1.357-.796 2.468-1.45 2.469-1.452.001-.002.005-.087.008-.19a11.29 11.29 0 0 0 .01-.461c.002-.258.001-.455-.002-.595a.858.858 0 0 0-.056-.305c-.063-.15-.196-.32-.401-.509-.31-.287-1.375-1.125-2.369-1.862-1.048-.774-3.568-2.611-4.461-3.251a9.846 9.846 0 0 0-1.065-.664l-.218-.116-.116.079a13.8 13.8 0 0 0-.547.393c-1.443 1.08-2.769 2.654-3.65 4.333a11.697 11.697 0 0 0-1.229 4.725c-.07.856-.007 2.142.141 2.932.723 3.898 3.17 7.202 6.698 9.051a11.286 11.286 0 0 0 2.235.892l.022.007-.022-.007a12.14 12.14 0 0 0 1.614.385c.286.048.97.095 1.37.095.412 0 1.093-.047 1.37-.095a12.14 12.14 0 0 0 1.614-.385 11.286 11.286 0 0 0 2.235-.892c3.529-1.85 5.975-5.154 6.698-9.051.148-.79.212-2.076.141-2.932-.328-3.986-2.636-7.589-6.201-9.67a11.59 11.59 0 0 0-4.566-1.591 20.19 20.19 0 0 0-.365-.034c-.047-.005-.18-.007-.356-.007zm1.334 4.838v.002c.002 0 .004.002.005.004l.001.003v.002l-.001.003-.004.003h-.003l-3.19.944a.048.048 0 0 0-.036.033l-.949 3.189a.051.051 0 0 1-.051.037.052.052 0 0 1-.05-.037l-.95-3.189a.05.05 0 0 0-.036-.033l-3.19-.944a.05.05 0 0 1-.036-.052.05.05 0 0 1 .036-.037l3.19-.944a.05.05 0 0 0 .036-.033l.949-3.19a.05.05 0 0 1 .051-.036c.023 0 .042.015.05.037l.95 3.189a.05.05 0 0 0 .036.033l3.19.944c.022.007.037.026.036.05 0 .013-.005.025-.014.034l-.003.003zM7.879 14.412l2.94 2.758v.001l.002.002.002.002v.001l.001.001v.001l-.001.001-.001.001-.002.001-.002.001h-.001l-5.882.001h-.001l-.002-.001-.002-.001-.001-.001-.001-.001v-.001l.001-.001.001-.002.002-.002v-.001l2.946-2.763zm8.132-8.23l2.929 2.748c.006.004.01.01.01.017 0 .006-.002.013-.007.018l-2.921 2.742a.026.026 0 0 1-.018.007.026.026 0 0 1-.018-.007l-2.921-2.742a.026.026 0 0 1-.007-.018c0-.007.004-.013.01-.017l2.929-2.748a.026.026 0 0 1 .018-.007c.007 0 .013.003.018.007z" fill="#000"/></svg>
