<svg xmlns="http://www.w3.org/2000/svg" viewBox="0 0 24 24" fill="none"><path d="M12 0C11.31 0 10.62.093 10.003.252L3.46 2.723C2.205 3.203 1.5 4.393 1.5 5.727v12.547c0 1.333.705 2.523 1.96 3.003l1.755.703c.846.337 1.125.337 1.508.337 1.23 0 1.995-.75 1.995-2.07V8.737c0-.105-.075-.18-.18-.18h-.87c-.105 0-.18.075-.18.18v11.51c0 .592-.615 1.185-1.29.825l-1.83-.735C4.095 20.167 3.75 19.695 3.75 19.17V6.622c0-.525.345-.998.615-1.168l6.435-2.407c.285-.105.6-.105.885 0l6.435 2.407c.27.17.615.643.615 1.168v12.547c0 .525-.345.998-.615 1.168l-6.435 2.407c-.285.105-.6.105-.885 0l-1.68-.675c-.15-.06-.345-.15-.495-.15-.345 0-.84.225-.84.225s.9.45 1.365.675l2.175.87c.6.24 1.29.24 1.89 0l6.435-2.407c1.23-.48 1.935-1.67 1.935-3.003V5.727c0-1.333-.705-2.523-1.935-3.003L13.997.252C13.38.093 12.69 0 12 0zm3.06 6.675c-1.8 0-2.85.975-2.85 2.595 0 1.755.975 2.25 2.55 2.475 1.89.27 2.04.66 2.04 1.185 0 .915-.75 1.305-1.995 1.305-1.755 0-2.145-.435-2.265-1.305-.015-.09-.09-.15-.18-.15h-.885c-.105 0-.18.075-.18.18 0 1.05.57 2.295 3.51 2.295 2.1 0 3.3-.825 3.3-2.67 0-1.68-.975-2.13-3.03-2.445-1.575-.24-1.56-.36-1.56-.825 0-.375.165-.87 1.56-.87 1.26 0 1.725.27 1.92 1.125.015.075.09.135.18.135h.885c.045 0 .09-.015.12-.06.03-.045.06-.09.045-.135-.24-1.395-1.035-2.04-3.15-2.04z" fill="#539E43"/></svg>
