<svg xmlns="http://www.w3.org/2000/svg" viewBox="0 0 24 24" fill="none"><path d="M1.125 0C.502 0 0 .502 0 1.125v21.75C0 23.498.502 24 1.125 24h21.75c.623 0 1.125-.502 1.125-1.125V1.125C24 .502 23.498 0 22.875 0H1.125zM14.25 12V9.75h-9v2.25h3v9h3v-9h3zm1.5 11.25h3v-2.813c.609.352 1.313.563 2.25.563 2.063 0 3.75-1.125 3.75-4.125 0-3-1.687-4.125-3.75-4.125-.938 0-1.641.211-2.25.563V9.75h-3v13.5zm3-6c0 .75.563 1.125 1.5 1.125.938 0 1.5-.375 1.5-1.125s-.563-1.125-1.5-1.125c-.938 0-1.5.375-1.5 1.125z" fill="#3178C6"/></svg>
